<?xml version="1.0" encoding="UTF-8"?>
<!DOCTYPE svg PUBLIC "-//W3C//DTD SVG 1.1//EN" "http://www.w3.org/Graphics/SVG/1.1/DTD/svg11.dtd">
<!-- Creator: CorelDRAW 2017 -->
<svg xmlns="http://www.w3.org/2000/svg" xml:space="preserve" width="145mm" height="100mm" version="1.1" style="shape-rendering:geometricPrecision; text-rendering:geometricPrecision; image-rendering:optimizeQuality; fill-rule:evenodd; clip-rule:evenodd"
viewBox="0 0 14500 10000"
 xmlns:xlink="http://www.w3.org/1999/xlink">
 <defs>
  <style type="text/css">
   <![CDATA[
    .str0 {stroke:#028482;stroke-width:7.62}
    .fil0 {fill:#028482}
   ]]>
  </style>
 </defs>
 <g id="Layer_x0020_1">
  <metadata id="CorelCorpID_0Corel-Layer"/>
  <g id="_1455299316496">
   <path class="fil0 str0" d="M8356 4071l0 1743 285 0 -6 -1371c38,25 93,89 129,125l254 254c47,47 80,88 127,135 173,173 347,340 517,516l333 340 401 0 -777 -780c-26,-26 -36,-45 -63,-72 -175,-173 -342,-342 -517,-516l-254 -262c-44,-44 -83,-83 -127,-127 -68,-68 -76,-104 -184,-104 -53,0 -119,66 -119,119zm0 1913l0 491 288 0 -2 -491 -286 0zm1806 0l389 396c79,79 85,112 184,112 87,0 135,-73 135,-161l0 -347 -288 0 0 17 -17 -17 -403 0zm708 -170l0 -1845 -288 0 0 1845 288 0z"/>
   <path class="fil0 str0" d="M6824 6238c-191,0 -300,-14 -463,-96 -102,-51 -163,-93 -234,-158l-377 0c31,44 65,86 94,117 40,41 14,32 79,82l82 71c17,14 30,24 48,37 581,427 1374,240 1764,-306l-380 0c-68,62 -135,109 -228,156 -99,50 -240,99 -384,99zm-845 -424c-97,-142 -179,-337 -179,-532 0,-187 11,-321 93,-483 116,-229 242,-366 469,-480 472,-238 1053,-41 1310,480 124,251 125,605 3,858 -29,61 -50,98 -86,151l-4 6 334 0c85,-170 133,-367 133,-583 0,-705 -565,-1295 -1270,-1295 -221,0 -362,49 -520,115 -59,24 -148,78 -200,114 -165,116 -274,244 -378,418 -24,39 -37,62 -55,106 -72,176 -117,321 -117,526 0,227 51,429 135,600l332 0z"/>
   <path class="fil0 str0" d="M2709 3995l0 635c0,152 8,274 8,423 0,200 -5,537 13,761l285 0c-2,-26 -2,-56 -2,-92 0,-57 -2,-93 -7,-137l-10 -1616 -262 0c-20,0 -25,6 -25,25zm47 1989c20,77 54,125 125,210 251,299 721,324 1115,324 192,0 416,-24 562,-73 40,-13 77,-23 112,-40 173,-82 335,-198 416,-380 5,-12 10,-26 14,-41l-320 0c-92,118 -281,190 -417,216 -288,53 -799,48 -1056,-52 -71,-28 -128,-61 -177,-110 -20,-20 -37,-37 -51,-53l-324 0zm2365 -170c7,-140 1,-301 12,-386 14,-105 6,-1292 6,-1459l-279 0 0 897c0,67 -9,100 -9,161 0,110 0,220 0,330 0,152 -13,314 -16,456l285 0z"/>
   <path class="fil0 str0" d="M11819 5197c0,239 13,408 118,617l326 0c-102,-157 -165,-350 -165,-549 0,-354 199,-763 505,-917 209,-105 269,-107 494,-107 185,0 431,92 538,173 107,81 275,258 308,403 86,-2 188,-51 279,-51 -8,-100 -111,-256 -161,-322 -44,-59 -116,-145 -174,-190 -147,-114 -178,-152 -394,-224 -405,-134 -825,-103 -1167,160 -58,44 -107,93 -159,146l-129 168c-119,199 -220,433 -220,694zm214 787l16 24c57,85 116,136 183,198 19,17 19,19 41,35 32,25 53,43 87,66 65,44 121,73 200,105 383,153 827,116 1179,-58 75,-37 186,-109 246,-168 41,-40 130,-134 166,-202l-365 0c-275,249 -777,302 -1141,156 -87,-35 -168,-88 -240,-156l-372 0z"/>
   <path class="fil0 str0" d="M237 6365c0,75 80,127 169,127l1973 0 0 -288 -1863 0 0 -220 -279 0 0 381zm279 -551l0 -1845 -279 0 0 1845 279 0z"/>
   <path class="fil0 str0" d="M7654 2488c0,190 44,319 163,438 361,360 989,130 989,-421 0,-411 -467,-680 -813,-508 -62,31 -116,62 -167,112 -78,76 -171,229 -171,379z"/>
   <path class="fil0 str0" d="M11218 6475l288 0 0 -491 -288 0 0 491zm288 -661l0 -1845 -288 0 0 1845 288 0z"/>
   <path class="fil0 str0" d="M5816 7424c0,169 32,255 150,375 45,45 76,64 137,91 301,135 659,-84 663,-434 5,-434 -512,-634 -809,-348 -27,26 -79,96 -96,133 -23,51 -46,114 -46,183z"/>
   <path class="fil0 str0" d="M5393 3063c0,143 50,232 129,311 48,48 63,56 125,87 208,103 460,-4 559,-203 77,-157 46,-357 -74,-477 -140,-139 -330,-175 -502,-91 -127,62 -237,210 -237,373z"/>
   <path class="fil0 str0" d="M3911 7889l0 51c0,233 330,428 557,201 208,-207 54,-557 -235,-557 -165,0 -322,145 -322,305z"/>
   <path class="fil0 str0" d="M7154 1361c0,90 4,153 78,227 105,105 291,105 390,4 174,-175 62,-477 -206,-477 -127,0 -262,124 -262,246z"/>
   <path class="fil0 str0" d="M3674 9532c0,72 28,125 65,163 159,165 392,20 392,-146 0,-321 -457,-298 -457,-17z"/>
   <path class="fil0 str0" d="M8797 557c118,0 186,-69 186,-186 0,-147 -190,-224 -300,-114 -110,110 -33,300 114,300z"/>
  </g>
 </g>
</svg>
